PathFileType	4	(x/y/z)	S05_PSF_T05
DataRate	CameraRate	NumFrames	NumMarkers	Units	OrigDataRate	OrigDataStartFrame	OrigNumFrames
240	240	4	50	mm	240	167	445
Frame#	Time	Sternum			R.Acromium			L.Acromium			Top.Head			R.ASIS			L.ASIS			R.PSIS			L.PSIS			R.Great.Tro			L.Great.Tro			R.Iliac.Crest			L.Iliac.Crest			V.Sacral			R.Thigh.Upper.Post			R.Thigh.Lower.Ant			R.Thigh.Lower.Post			R.Thigh.Upper.Ant			R.Knee.Lat			R.Knee.Med			R.Shank.Upper.Post			R.Shank.Lower.Ant			R.Shank.Lower.Post			R.Shank.Upper.Ant			R.Ankle.Lat			R.Ankle.Med			R.Heel.Upper			R.Heel.Med			R.Heel.Lat			R.Toe.Lat			R.Toe.Med			R.Toe.Tip			L.Thigh.Upper.Post			L.Thigh.Lower.Ant			L.Thigh.Lower.Post			L.Thigh.Upper.Ant			L.Knee.Lat			L.Shank.Upper.Post			L.Shank.Lower.Ant			L.Shank.Lower.Post			L.Shank.Upper.Ant			L.Ankle.Lat			L.Ankle.Med			L.Heel.Upper			L.Heel.Med			L.Heel.Lat			L.Toe.Lat			L.Toe.Med			L.Toe.Tip			Cervical.Spine			Back			
		X1	Y1	Z1	X2	Y2	Z2	X3	Y3	Z3	X4	Y4	Z4	X5	Y5	Z5	X6	Y6	Z6	X7	Y7	Z7	X8	Y8	Z8	X9	Y9	Z9	X10	Y10	Z10	X11	Y11	Z11	X12	Y12	Z12	X13	Y13	Z13	X14	Y14	Z14	X15	Y15	Z15	X16	Y16	Z16	X17	Y17	Z17	X18	Y18	Z18	X19	Y19	Z19	X20	Y20	Z20	X21	Y21	Z21	X22	Y22	Z22	X23	Y23	Z23	X24	Y24	Z24	X25	Y25	Z25	X26	Y26	Z26	X27	Y27	Z27	X28	Y28	Z28	X29	Y29	Z29	X30	Y30	Z30	X31	Y31	Z31	X32	Y32	Z32	X33	Y33	Z33	X34	Y34	Z34	X35	Y35	Z35	X36	Y36	Z36	X37	Y37	Z37	X38	Y38	Z38	X39	Y39	Z39	X40	Y40	Z40	X41	Y41	Z41	X42	Y42	Z42	X43	Y43	Z43	X44	Y44	Z44	X45	Y45	Z45	X46	Y46	Z46	X47	Y47	Z47	X48	Y48	Z48	X49	Y49	Z49	X50	Y50	Z50	

167	0.69167	-630.88	1234.2	304.77	-735.9	1484.9	467.49	-742.36	1516.2	144.37	-738.59	1805.6	303.85	-687.19	989.28	421.8	-690.14	990.58	171.81	-891.55	994.31	344.58	-890.76	1001.5	253.95	-754.58	901.74	488.01	-793.17	912.19	102.13	-781.63	1064.2	465.75	-783.94	1066.7	130.45	-901.94	961.27	310.89	-631.2	706.62	475.59	-563.62	655.67	418.13	-616.57	619.56	453.03	-582.41	740.85	440.03	-590.76	528.18	433.33	-590.4	514.66	302.82	-616.83	278.42	425.26	-542.45	227.09	426.68	-602.21	204.03	409.91	-556.66	302.69	439.79	-534.74	122.19	409.72	-531.24	143.96	324.1	-596.3	70.09	347.19	-583.04	38.413	320.03	-587.16	42.51	384.6	-423.38	44.224	442.2	-386.34	55.036	325.69	-326.4	80.25	371.98	-829.76	681.73	105.91	-759.9	596.38	118.24	-831.98	586.89	117.7	-750.77	686.09	104.06	-849.05	496.87	121.95	-1017.3	375.57	134.87	-1000	288.46	132.73	-1062.5	319.07	155.91	-960.33	346	118.11	-1124.5	191.55	165.68	-1077.8	181.58	246.79	-1193.4	184.52	226.67	-1193	158.4	259.57	-1210.7	161.34	200.72	-1078.7	53.816	127.37	-1037.7	53.463	242.7	-989.08	41.108	183.34	-785.03	1539.7	310.65	-895.1	1265.2	297.73
168	0.69583	-624.97	1235.1	305.67	-730.27	1485.5	468.37	-736.29	1517	145.23	-732.89	1806.2	304.91	-681.55	990.2	422.7	-683.95	990.92	172.68	-885.7	994.91	344.69	-884.71	1001.7	254.01	-749.51	902.75	488.7	-786.3	911.91	102.77	-776.39	1065	466.3	-777.5	1067.2	130.98	-896.01	961.73	311.08	-626.13	707.17	476.5	-558.44	656.07	419.28	-611.65	620.09	453.91	-577.05	741.29	441.23	-586.09	528.51	434.28	-585.79	515.08	303.8	-614.02	278.83	426.29	-540.08	226.87	427.21	-600.12	204.36	410.77	-553.56	302.58	440.49	-533.61	121.95	410.06	-530.03	143.89	324.52	-595.71	70.459	347.38	-582.75	38.75	320.1	-586.86	42.749	384.7	-423	43.096	442.35	-385.82	53.727	325.79	-325.61	78.203	372.15	-820.73	680.96	105.78	-750.03	596.25	117.87	-822.11	586.02	117.27	-741.76	686.11	104.15	-838.38	496.29	121.24	-1008.1	377.67	134.58	-992.05	290.38	132.23	-1054	321.96	155.55	-951.47	347.31	117.57	-1118.1	195.9	165.42	-1071.4	184.86	246.29	-1186.5	191.25	226.6	-1186.9	165.35	259.65	-1204.6	168.56	200.77	-1076.9	56.313	127.36	-1035.6	54.86	242.46	-987.98	40.862	183.13	-779.3	1540.4	311.53	-889.19	1265.8	298.22
169	0.7	-619.09	1236	306.56	-724.64	1486.2	469.24	-730.26	1517.8	146.07	-727.2	1806.9	305.94	-675.93	991.14	423.59	-677.81	991.26	173.54	-879.88	995.52	344.79	-878.71	1002	254.08	-744.45	903.77	489.38	-779.46	911.64	103.4	-771.21	1065.8	466.84	-771.12	1067.7	131.51	-890.12	962.2	311.27	-621.16	707.69	477.43	-553.38	656.43	420.45	-606.86	620.59	454.8	-571.76	741.68	442.46	-581.54	528.82	435.22	-581.3	515.48	304.76	-611.33	279.23	427.31	-537.82	226.66	427.72	-598.14	204.68	411.63	-550.59	302.46	441.19	-532.57	121.72	410.39	-528.92	143.85	324.91	-595.17	70.779	347.56	-582.49	39.055	320.18	-586.59	42.959	384.8	-422.67	42.094	442.49	-385.37	52.551	325.87	-324.92	76.343	372.29	-811.59	680.17	105.63	-740.01	596.16	117.5	-812.08	585.15	116.83	-732.65	686.17	104.23	-827.5	495.72	120.55	-998.66	379.81	134.27	-983.81	292.36	131.77	-1045.1	324.89	155.19	-942.33	348.65	117.05	-1111.4	200.34	165.17	-1064.7	188.23	245.82	-1179.2	198.06	226.53	-1180.5	172.42	259.73	-1198.1	175.91	200.81	-1074.7	59.063	127.35	-1033.2	56.464	242.21	-986.66	40.685	182.9	-773.59	1541	312.4	-883.3	1266.3	298.7
170	0.70417	-613.25	1236.9	307.43	-719.02	1486.8	470.09	-724.27	1518.5	146.9	-721.51	1807.5	306.96	-670.34	992.07	424.47	-671.74	991.6	174.38	-874.09	996.14	344.9	-872.75	1002.2	254.16	-739.38	904.79	490.06	-772.65	911.38	104.03	-766.05	1066.6	467.38	-764.8	1068.2	132.03	-884.27	962.68	311.48	-616.27	708.17	478.38	-548.42	656.73	421.64	-602.2	621.06	455.69	-566.56	742.03	443.71	-577.13	529.11	436.14	-576.94	515.87	305.71	-608.75	279.62	428.32	-535.67	226.45	428.21	-596.26	205.01	412.46	-547.74	302.34	441.87	-531.62	121.51	410.7	-527.91	143.84	325.28	-594.68	71.051	347.73	-582.26	39.328	320.26	-586.34	43.143	384.9	-422.4	41.211	442.63	-384.97	51.498	325.92	-324.32	74.659	372.4	-802.36	679.38	105.46	-729.87	596.11	117.15	-801.9	584.3	116.37	-723.44	686.25	104.31	-816.42	495.15	119.87	-988.88	382	133.93	-975.31	294.38	131.34	-1036	327.88	154.81	-932.94	350.02	116.57	-1104.5	204.88	164.94	-1057.8	191.7	245.37	-1171.5	204.94	226.46	-1173.7	179.56	259.82	-1191.4	183.35	200.85	-1072.3	62.065	127.35	-1030.6	58.282	241.95	-985.07	40.595	182.62	-767.9	1541.6	313.26	-877.43	1266.9	299.18
